<svg height="512" viewBox="0 0 58 58" width="512" xmlns="http://www.w3.org/2000/svg"><g id="Page-1" fill="none" fill-rule="evenodd"><g id="004---Pack-Lunch" fill-rule="nonzero"><path id="Shape" d="m58 19v-5c-.0032948-1.1032019-.8967981-1.9967052-2-2h-3c-1.1032019.0032948-1.9967052.8967981-2 2v2c-.9453052-1.2577905-2.4265845-1.9984301-4-2h-3v-2c-.0032948-1.1032019-.8967981-1.9967052-2-2h-1v-3c-.0044086-3.86416566-3.1358343-6.99559136-7-7h-16c-3.8641657.00440864-6.9955914 3.13583434-7 7v3h-1c-1.10320187.0032948-1.9967052.8967981-2 2v2h-3c-2.76142375 0-5 2.2385763-5 5v28c0 1.3260824.5267842 2.597852 1.46446609 3.5355339.9376819.9376819 2.20945146 1.4644661 3.53553391 1.4644661h13.2c-.1361861.4882483-.2035032.9931265-.2 1.5 0 1.93.9 3.5 2 3.5 0 0 42 10 37.22-36.42.490494-.3775852.7785122-.9610067.78-1.58zm-40-9h-1v-3c0-.55228475.4477153-1 1-1h16c.5522847 0 1 .44771525 1 1v3h-1c-1.1032019.0032948-1.9967052.8967981-2 2v2h-12v-2c-.0032948-1.1032019-.8967981-1.9967052-2-2z" fill="#26b99a"/><path id="Shape" d="m20 12v2h-12v-2c.0032948-1.1032019.89679813-1.9967052 2-2h8c1.1032019.0032948 1.9967052.8967981 2 2z" fill="#f0c419"/><path id="Shape" d="m44 12v2h-12v-2c.0032948-1.1032019.8967981-1.9967052 2-2h8c1.1032019.0032948 1.9967052.8967981 2 2z" fill="#f0c419"/><path id="Shape" d="m58 14v5c-.0014878.6189933-.289506 1.2024148-.78 1.58-.3468358.275095-.7773247.4232961-1.22.42h-3c-.2288271.0017135-.4559921-.0389728-.67-.12-.7948988-.2841914-1.3266454-1.0358332-1.33-1.88v-5c.0032948-1.1032019.8967981-1.9967052 2-2h3c1.1032019.0032948 1.9967052.8967981 2 2z" fill="#805333"/><path id="Shape" d="m22 53.5c0 1.93-.9 3.5-2 3.5s-2-1.57-2-3.5c-.0035032-.5068735.0638139-1.0117517.2-1.5.32-1.18 1.01-2 1.8-2 1.1 0 2 1.57 2 3.5z" fill="#805333"/><path id="Shape" d="m47 20v11.18c-1.2106738 1.8358736-2.5542727 3.5805469-4.02 5.22.02-.27.02-.53.02-.78 0-3.31-3.07-6-6.86-6-1.9145638-.0203828-3.7604953.7122437-5.14 2.04-.5277669-.5200867-1.1354725-.9522328-1.8-1.28-2.68-1.32-6.41-.98-8.43 1.36-2.1 2.42-2.18 6.01-1.71 9.03.349447 2.1801845 1.0627082 4.2861642 2.11 6.23h-15.17c-.55228475 0-1-.4477153-1-1v-26c0-.5522847.44771525-1 1-1h40c.5522847 0 1 .4477153 1 1z" fill="#33907c"/><path id="Shape" d="m20 57c1.1 0 2-1.57 2-3.5s-.9-3.5-2-3.5c.81-.32 1.62-.63 2.42-.94 6.54-2.54 12.84-5.11 18.02-10.03.89-.84 1.73-1.72 2.54-2.63 1.4657273-1.6394531 2.8093262-3.3841264 4.02-5.22 2.1409248-3.2322418 3.9278748-6.6854474 5.33-10.3.2140079.0810272.4411729.1217135.67.12h3c.4426753.0032961.8731642-.144905 1.22-.42 4.78 46.42-37.22 36.42-37.22 36.42z" fill="#f3d55b"/><path id="Shape" d="m31 32.658c-.5522847 0-1-.4477153-1-1 0-.362.066-8.873 5.8-10.021.5420675-.1104569 1.071043.2394325 1.1815.7815.1104569.5420675-.2394325 1.071043-.7815 1.1815-4.134.827-4.2 7.988-4.2 8.061-.0016533.5511128-.4488847.9970025-1 .997z" fill="#805333"/><path id="Shape" d="m9 26c-.55228475 0-1-.4477153-1-1v-2c0-.5522847.44771525-1 1-1s1 .4477153 1 1v2c0 .5522847-.44771525 1-1 1z" fill="#65ddb9"/><path id="Shape" d="m9 44c-.55228475 0-1-.4477153-1-1v-14c0-.5522847.44771525-1 1-1s1 .4477153 1 1v14c0 .5522847-.44771525 1-1 1z" fill="#65ddb9"/><path id="Shape" d="m34 55c-.5164484-.0003122-.9477057-.3938426-.9951642-.9081059-.0474585-.5142632.3044953-.9800718.8121642-1.0748941 15.161-2.843 18.175-17.07 18.2-17.213.0593016-.3606322.3106176-.6601885.6554537-.7812685s.728259-.0443954 1 .2.388511.6175689.3045463.9732685c-.031.157-3.322 15.7-19.8 18.787-.0583567.0110627-.1176045.0167532-.177.017z" fill="#f0c419"/><path id="Shape" d="m43 35.62c0 .25 0 .51-.02.78-.81.91-1.65 1.79-2.54 2.63-5.18 4.92-11.48 7.49-18.02 10.03-.4530388-.6639264-.8702996-1.3515722-1.25-2.06-1.0472918-1.9438358-1.760553-4.0498155-2.11-6.23-.47-3.02-.39-6.61 1.71-9.03 2.02-2.34 5.75-2.68 8.43-1.36.6645275.3277672 1.2722331.7599133 1.8 1.28 1.3795047-1.3277563 3.2254362-2.0603828 5.14-2.04 3.79 0 6.86 2.69 6.86 6z" fill="#e64c3c"/><path id="Shape" d="m23 37.619c-.5522847 0-1-.4477153-1-1-.0315929-1.0702387.3796808-2.1061138 1.1367835-2.8632165s1.7929778-1.1683764 2.8632165-1.1367835c.5522847-.0016568 1.0013431.4447153 1.0029999.997.0016569.5522847-.4447152 1.0013431-.9969999 1.003-.5412599-.0362335-1.0718719.1625995-1.4560312.5456097-.3841592.3830103-.5845808.9130243-.5499688 1.4543903 0 .5522847-.4477153 1-1 1z" fill="#fff"/></g></g></svg>