<svg id="svg" version="1.1" xmlns="http://www.w3.org/2000/svg" xmlns:xlink="http://www.w3.org/1999/xlink" width="400" height="400" viewBox="0, 0, 400,400"><g id="svgg"><path id="path0" d="M140.000 76.000 L 140.000 84.000 148.000 84.000 L 156.000 84.000 156.000 76.000 L 156.000 68.000 148.000 68.000 L 140.000 68.000 140.000 76.000 M172.000 76.000 L 172.000 84.000 180.000 84.000 L 188.000 84.000 188.000 76.000 L 188.000 68.000 180.000 68.000 L 172.000 68.000 172.000 76.000 M220.000 76.000 L 220.000 84.000 228.000 84.000 L 236.000 84.000 236.000 76.000 L 236.000 68.000 228.000 68.000 L 220.000 68.000 220.000 76.000 M252.000 76.000 L 252.000 84.000 260.000 84.000 L 268.000 84.000 268.000 76.000 L 268.000 68.000 260.000 68.000 L 252.000 68.000 252.000 76.000 M156.000 124.000 L 156.000 132.000 148.000 132.000 L 140.000 132.000 140.000 148.000 L 140.000 164.000 132.000 164.000 L 124.000 164.000 124.000 180.000 L 124.000 196.000 132.000 196.000 L 140.000 196.000 140.000 188.000 L 140.000 180.000 148.000 180.000 L 156.000 180.000 156.000 172.000 L 156.000 164.000 164.000 164.000 L 172.000 164.000 172.000 188.000 L 172.000 212.000 180.000 212.000 L 188.000 212.000 188.000 220.000 L 188.000 228.000 204.000 228.000 L 220.000 228.000 220.000 220.000 L 220.000 212.000 228.000 212.000 L 236.000 212.000 236.000 188.000 L 236.000 164.000 244.000 164.000 L 252.000 164.000 252.000 172.000 L 252.000 180.000 260.000 180.000 L 268.000 180.000 268.000 188.000 L 268.000 196.000 276.000 196.000 L 284.000 196.000 284.000 180.000 L 284.000 164.000 276.000 164.000 L 268.000 164.000 268.000 148.000 L 268.000 132.000 260.000 132.000 L 252.000 132.000 252.000 124.000 L 252.000 116.000 244.000 116.000 L 236.000 116.000 236.000 124.000 L 236.000 132.000 204.000 132.000 L 172.000 132.000 172.000 124.000 L 172.000 116.000 164.000 116.000 L 156.000 116.000 156.000 124.000 M236.000 156.000 L 236.000 164.000 204.000 164.000 L 172.000 164.000 172.000 156.000 L 172.000 148.000 204.000 148.000 L 236.000 148.000 236.000 156.000 " stroke="none" fill="#fcfcfc" fill-rule="evenodd"></path><path id="path1" d="M156.000 68.000 L 156.000 84.000 148.000 84.000 L 140.000 84.000 140.000 100.000 L 140.000 116.000 156.000 116.000 L 172.000 116.000 172.000 124.000 L 172.000 132.000 204.000 132.000 L 236.000 132.000 236.000 124.000 L 236.000 116.000 252.000 116.000 L 268.000 116.000 268.000 100.000 L 268.000 84.000 260.000 84.000 L 252.000 84.000 252.000 68.000 L 252.000 52.000 204.000 52.000 L 156.000 52.000 156.000 68.000 M188.000 92.000 L 188.000 116.000 180.000 116.000 L 172.000 116.000 172.000 92.000 L 172.000 68.000 180.000 68.000 L 188.000 68.000 188.000 92.000 M236.000 92.000 L 236.000 116.000 228.000 116.000 L 220.000 116.000 220.000 92.000 L 220.000 68.000 228.000 68.000 L 236.000 68.000 236.000 92.000 M76.000 204.000 L 76.000 228.000 84.000 228.000 L 92.000 228.000 92.000 204.000 L 92.000 180.000 84.000 180.000 L 76.000 180.000 76.000 204.000 M316.000 204.000 L 316.000 228.000 324.000 228.000 L 332.000 228.000 332.000 204.000 L 332.000 180.000 324.000 180.000 L 316.000 180.000 316.000 204.000 M156.000 300.000 L 156.000 308.000 172.000 308.000 L 188.000 308.000 188.000 300.000 L 188.000 292.000 172.000 292.000 L 156.000 292.000 156.000 300.000 M220.000 300.000 L 220.000 308.000 236.000 308.000 L 252.000 308.000 252.000 300.000 L 252.000 292.000 236.000 292.000 L 220.000 292.000 220.000 300.000 " stroke="none" fill="#fcb44c" fill-rule="evenodd"></path><path id="path2" d="M172.000 100.000 L 172.000 116.000 180.000 116.000 L 188.000 116.000 188.000 100.000 L 188.000 84.000 180.000 84.000 L 172.000 84.000 172.000 100.000 M220.000 100.000 L 220.000 116.000 228.000 116.000 L 236.000 116.000 236.000 100.000 L 236.000 84.000 228.000 84.000 L 220.000 84.000 220.000 100.000 M172.000 156.000 L 172.000 164.000 204.000 164.000 L 236.000 164.000 236.000 156.000 L 236.000 148.000 204.000 148.000 L 172.000 148.000 172.000 156.000 " stroke="none" fill="#242424" fill-rule="evenodd"></path><path id="path3" d="M140.000 124.000 L 140.000 132.000 132.000 132.000 L 124.000 132.000 124.000 140.000 L 124.000 148.000 116.000 148.000 L 108.000 148.000 108.000 156.000 L 108.000 164.000 100.000 164.000 L 92.000 164.000 92.000 212.000 L 92.000 260.000 100.000 260.000 L 108.000 260.000 108.000 268.000 L 108.000 276.000 116.000 276.000 L 124.000 276.000 124.000 268.000 L 124.000 260.000 132.000 260.000 L 140.000 260.000 140.000 276.000 L 140.000 292.000 132.000 292.000 L 124.000 292.000 124.000 300.000 L 124.000 308.000 140.000 308.000 L 156.000 308.000 156.000 300.000 L 156.000 292.000 172.000 292.000 L 188.000 292.000 188.000 300.000 L 188.000 308.000 204.000 308.000 L 220.000 308.000 220.000 300.000 L 220.000 292.000 236.000 292.000 L 252.000 292.000 252.000 300.000 L 252.000 308.000 268.000 308.000 L 284.000 308.000 284.000 300.000 L 284.000 292.000 276.000 292.000 L 268.000 292.000 268.000 276.000 L 268.000 260.000 276.000 260.000 L 284.000 260.000 284.000 268.000 L 284.000 276.000 292.000 276.000 L 300.000 276.000 300.000 268.000 L 300.000 260.000 308.000 260.000 L 316.000 260.000 316.000 212.000 L 316.000 164.000 308.000 164.000 L 300.000 164.000 300.000 156.000 L 300.000 148.000 292.000 148.000 L 284.000 148.000 284.000 140.000 L 284.000 132.000 276.000 132.000 L 268.000 132.000 268.000 124.000 L 268.000 116.000 260.000 116.000 L 252.000 116.000 252.000 124.000 L 252.000 132.000 260.000 132.000 L 268.000 132.000 268.000 148.000 L 268.000 164.000 276.000 164.000 L 284.000 164.000 284.000 180.000 L 284.000 196.000 276.000 196.000 L 268.000 196.000 268.000 188.000 L 268.000 180.000 260.000 180.000 L 252.000 180.000 252.000 172.000 L 252.000 164.000 244.000 164.000 L 236.000 164.000 236.000 188.000 L 236.000 212.000 228.000 212.000 L 220.000 212.000 220.000 220.000 L 220.000 228.000 204.000 228.000 L 188.000 228.000 188.000 220.000 L 188.000 212.000 180.000 212.000 L 172.000 212.000 172.000 188.000 L 172.000 164.000 164.000 164.000 L 156.000 164.000 156.000 172.000 L 156.000 180.000 148.000 180.000 L 140.000 180.000 140.000 188.000 L 140.000 196.000 132.000 196.000 L 124.000 196.000 124.000 180.000 L 124.000 164.000 132.000 164.000 L 140.000 164.000 140.000 148.000 L 140.000 132.000 148.000 132.000 L 156.000 132.000 156.000 124.000 L 156.000 116.000 148.000 116.000 L 140.000 116.000 140.000 124.000 M156.000 236.000 L 156.000 260.000 148.000 260.000 L 140.000 260.000 140.000 236.000 L 140.000 212.000 148.000 212.000 L 156.000 212.000 156.000 236.000 M268.000 236.000 L 268.000 260.000 260.000 260.000 L 252.000 260.000 252.000 236.000 L 252.000 212.000 260.000 212.000 L 268.000 212.000 268.000 236.000 " stroke="none" fill="#dc2c04" fill-rule="evenodd"></path><path id="path4" d="" stroke="none" fill="#10090c0" fill-rule="evenodd"></path></g></svg>